<?xml version="1.0" encoding="UTF-8"?>
<svg version="1.1" xmlns="http://www.w3.org/2000/svg" width="1536" height="1024">
<path d="M0 0 C506.88 0 1013.76 0 1536 0 C1536 337.92 1536 675.84 1536 1024 C1029.12 1024 522.24 1024 0 1024 C0 686.08 0 348.16 0 0 Z " fill="#FEFEFE" transform="translate(0,0)"/>
<path d="M0 0 C1.17175781 -0.02900391 1.17175781 -0.02900391 2.3671875 -0.05859375 C9.62789127 1.24751019 15.14364037 5.76963821 20.625 10.4375 C26.06320756 14.96400429 31.56503796 19.34962353 37.25 23.5625 C43.39420158 28.12493761 49.4414188 32.79014349 55.4453125 37.53515625 C59.57129263 40.79564846 63.72237822 44.02354735 67.875 47.25 C69.01171143 48.13341064 69.01171143 48.13341064 70.17138672 49.03466797 C71.71769608 50.23626492 73.26408324 51.43776177 74.81054688 52.63916016 C78.58315636 55.57049364 82.35398151 58.50412028 86.125 61.4375 C87.23282837 62.29903687 87.23282837 62.29903687 88.36303711 63.17797852 C92.17646465 66.14360866 95.98919963 69.11012266 99.80078125 72.078125 C106.47926496 77.27740157 113.15955008 82.47352123 119.875 87.625 C126.14849975 92.44710853 132.40930316 97.28347307 138.59472656 102.21826172 C139.95127337 103.29908411 141.31497117 104.37091775 142.6796875 105.44140625 C143.38351562 106.01761719 144.08734375 106.59382813 144.8125 107.1875 C145.39386719 107.65671875 145.97523438 108.1259375 146.57421875 108.609375 C150.89002246 113.6970227 151.56593448 119.2349968 151.51940918 125.69087219 C151.52550028 126.49425732 151.53159139 127.29764245 151.53786707 128.12537259 C151.55444422 130.80288456 151.54972886 133.47991821 151.54492188 136.1574707 C151.55226533 138.08314506 151.56085237 140.00881501 151.57058716 141.93447876 C151.59278412 147.15568261 151.59573469 152.37672855 151.59383965 157.59797311 C151.59371985 161.96163237 151.60228797 166.3252583 151.61061716 170.68890828 C151.62984519 180.98720827 151.63273743 191.28542721 151.62597656 201.58374023 C151.61933798 212.19533029 151.64219432 222.80657255 151.67929029 233.41809207 C151.71001553 242.53935346 151.72134419 251.66050314 151.71745348 260.78181523 C151.7153887 266.22483656 151.72082345 271.66758729 151.74534607 277.11055946 C151.76765681 282.23169088 151.7656992 287.35225817 151.74541855 292.47339249 C151.74201604 294.34783176 151.74706475 296.22230933 151.76140213 298.09669685 C151.89036956 316.21408646 151.89036956 316.21408646 146.125 324.4375 C145.50625 325.365625 144.8875 326.29375 144.25 327.25 C138.96059693 332.69497375 133.27625093 336.47433572 125.53406048 336.69476891 C123.64235634 336.7083726 121.75055395 336.71092835 119.85881042 336.70492554 C118.81479342 336.70945665 117.77077642 336.71398776 116.69512254 336.71865618 C113.19147895 336.73133177 109.68799018 336.72967775 106.18432617 336.72802734 C103.67443135 336.73401062 101.16453837 336.74081569 98.65464783 336.74838257 C92.54118343 336.76423242 86.42777589 336.77049186 80.31429287 336.77160732 C75.34403241 336.7725581 70.37378466 336.7766699 65.40352821 336.78300858 C51.30718054 336.80061965 37.2108633 336.80984769 23.11450454 336.80834763 C22.35476247 336.80826772 21.59502041 336.8081878 20.81225586 336.80810547 C20.05158447 336.80802371 19.29091308 336.80794195 18.50719104 336.80785771 C6.18119496 336.80704492 -6.14467889 336.82618116 -18.47063962 336.8543822 C-31.1315042 336.88312054 -43.79230918 336.89692197 -56.45320719 336.89519465 C-63.55946718 336.89453106 -70.66559903 336.90000965 -77.77182961 336.92155075 C-84.45559389 336.9416816 -91.1390428 336.94107918 -97.82283592 336.92651749 C-100.27540863 336.92442435 -102.72799813 336.9291602 -105.18054199 336.9412384 C-108.52996673 336.95666461 -111.87845505 336.94739899 -115.2278595 336.93197632 C-116.19722893 336.94226344 -117.16659836 336.95255057 -118.16534263 336.96314943 C-125.45716512 336.88900877 -130.66063882 335.13714321 -136.265625 330.4296875 C-137.18601562 329.38167969 -137.18601562 329.38167969 -138.125 328.3125 C-138.74890625 327.62929688 -139.3728125 326.94609375 -140.015625 326.2421875 C-146.78319048 316.03396899 -146.4537999 306.07159196 -146.40844727 294.25341797 C-146.41551301 292.31420233 -146.42426078 290.3749922 -146.43455505 288.43579102 C-146.45698042 283.19212056 -146.45412604 277.94875289 -146.44523358 272.70505285 C-146.44011092 268.32116542 -146.4474263 263.93733424 -146.45470566 259.55345261 C-146.47168155 249.21152869 -146.46816049 238.86975242 -146.45141602 228.52783203 C-146.43447961 217.86784463 -146.45035549 207.20826628 -146.4826389 196.54832351 C-146.50934196 187.38286149 -146.51660935 178.21752674 -146.50812382 169.05202973 C-146.50319887 163.5834209 -146.50538767 158.11505839 -146.52591133 152.64648056 C-146.54428075 147.50641811 -146.53829408 142.36694437 -146.51371193 137.22691345 C-146.50870892 135.34357623 -146.51218052 133.46019403 -146.52486038 131.57689285 C-146.54083288 129.00028572 -146.52580233 126.42560767 -146.50318909 123.84909058 C-146.51502482 123.10880674 -146.52686054 122.36852291 -146.53905493 121.60580623 C-146.42441248 115.15039354 -143.75309383 110.45815253 -139.33303553 105.81915843 C-137.81576704 104.38820995 -136.24370916 103.064983 -134.625 101.75 C-134.02147705 101.24581543 -133.4179541 100.74163086 -132.79614258 100.22216797 C-127.45537406 95.80564553 -121.94249805 91.61370979 -116.41186523 87.43920898 C-110.48981883 82.95652572 -104.75423179 78.2757122 -99.04199219 73.5300293 C-94.68155937 69.91195865 -90.28143942 66.35807823 -85.8125 62.875 C-80.70157385 58.89147318 -75.6486659 54.84307454 -70.625 50.75 C-69.9431665 50.19449463 -69.26133301 49.63898926 -68.55883789 49.06665039 C-67.24982366 48.00001667 -65.94082243 46.93336698 -64.63183594 45.86669922 C-56.72673576 39.43584091 -48.70792734 33.14912457 -40.68945312 26.86083984 C-38.32995559 25.00994229 -35.97186681 23.15725739 -33.61425781 21.30395508 C-32.45794397 20.39549234 -31.30104569 19.48777297 -30.14355469 18.58081055 C-27.11372298 16.20539864 -24.09589071 13.81659295 -21.09375 11.40625 C-20.47113281 10.90931641 -19.84851563 10.41238281 -19.20703125 9.90039062 C-18.02381039 8.95557994 -16.84386952 8.00664015 -15.66796875 7.05273438 C-10.84318994 3.2124868 -6.32754978 0.01037303 0 0 Z " fill="#FDFDFE" transform="translate(475.875,331.5625)"/>
<path d="M0 0 C1.17175781 -0.02900391 1.17175781 -0.02900391 2.3671875 -0.05859375 C9.62789127 1.24751019 15.14364037 5.76963821 20.625 10.4375 C26.06320756 14.96400429 31.56503796 19.34962353 37.25 23.5625 C43.39420158 28.12493761 49.4414188 32.79014349 55.4453125 37.53515625 C59.57129263 40.79564846 63.72237822 44.02354735 67.875 47.25 C69.01171143 48.13341064 69.01171143 48.13341064 70.17138672 49.03466797 C71.71769608 50.23626492 73.26408324 51.43776177 74.81054688 52.63916016 C78.58315636 55.57049364 82.35398151 58.50412028 86.125 61.4375 C87.23282837 62.29903687 87.23282837 62.29903687 88.36303711 63.17797852 C92.17646465 66.14360866 95.98919963 69.11012266 99.80078125 72.078125 C106.47926496 77.27740157 113.15955008 82.47352123 119.875 87.625 C126.14849975 92.44710853 132.40930316 97.28347307 138.59472656 102.21826172 C139.95127337 103.29908411 141.31497117 104.37091775 142.6796875 105.44140625 C143.38351562 106.01761719 144.08734375 106.59382813 144.8125 107.1875 C145.39386719 107.65671875 145.97523438 108.1259375 146.57421875 108.609375 C150.89002246 113.6970227 151.56593448 119.2349968 151.51940918 125.69087219 C151.52550028 126.49425732 151.53159139 127.29764245 151.53786707 128.12537259 C151.55444422 130.80288456 151.54972886 133.47991821 151.54492188 136.1574707 C151.55226533 138.08314506 151.56085237 140.00881501 151.57058716 141.93447876 C151.59278412 147.15568261 151.59573469 152.37672855 151.59383965 157.59797311 C151.59371985 161.96163237 151.60228797 166.3252583 151.61061716 170.68890828 C151.62984519 180.98720827 151.63273743 191.28542721 151.62597656 201.58374023 C151.61933798 212.19533029 151.64219432 222.80657255 151.67929029 233.41809207 C151.71001553 242.53935346 151.72134419 251.66050314 151.71745348 260.78181523 C151.7153887 266.22483656 151.72082345 271.66758729 151.74534607 277.11055946 C151.76765681 282.23169088 151.7656992 287.35225817 151.74541855 292.47339249 C151.74201604 294.34783176 151.74706475 296.22230933 151.76140213 298.09669685 C151.89036956 316.21408646 151.89036956 316.21408646 146.125 324.4375 C145.50625 325.365625 144.8875 326.29375 144.25 327.25 C138.96059693 332.69497375 133.27625093 336.47433572 125.53406048 336.69476891 C123.64235634 336.7083726 121.75055395 336.71092835 119.85881042 336.70492554 C118.81479342 336.70945665 117.77077642 336.71398776 116.69512254 336.71865618 C113.19147895 336.73133177 109.68799018 336.72967775 106.18432617 336.72802734 C103.67443135 336.73401062 101.16453837 336.74081569 98.65464783 336.74838257 C92.54118343 336.76423242 86.42777589 336.77049186 80.31429287 336.77160732 C75.34403241 336.7725581 70.37378466 336.7766699 65.40352821 336.78300858 C51.30718054 336.80061965 37.2108633 336.80984769 23.11450454 336.80834763 C22.35476247 336.80826772 21.59502041 336.8081878 20.81225586 336.80810547 C20.05158447 336.80802371 19.29091308 336.80794195 18.50719104 336.80785771 C6.18119496 336.80704492 -6.14467889 336.82618116 -18.47063962 336.8543822 C-31.1315042 336.88312054 -43.79230918 336.89692197 -56.45320719 336.89519465 C-63.55946718 336.89453106 -70.66559903 336.90000965 -77.77182961 336.92155075 C-84.45559389 336.9416816 -91.1390428 336.94107918 -97.82283592 336.92651749 C-100.27540863 336.92442435 -102.72799813 336.9291602 -105.18054199 336.9412384 C-108.52996673 336.95666461 -111.87845505 336.94739899 -115.2278595 336.93197632 C-116.19722893 336.94226344 -117.16659836 336.95255057 -118.16534263 336.96314943 C-125.45716512 336.88900877 -130.66063882 335.13714321 -136.265625 330.4296875 C-137.18601562 329.38167969 -137.18601562 329.38167969 -138.125 328.3125 C-138.74890625 327.62929688 -139.3728125 326.94609375 -140.015625 326.2421875 C-146.78319048 316.03396899 -146.4537999 306.07159196 -146.40844727 294.25341797 C-146.41551301 292.31420233 -146.42426078 290.3749922 -146.43455505 288.43579102 C-146.45698042 283.19212056 -146.45412604 277.94875289 -146.44523358 272.70505285 C-146.44011092 268.32116542 -146.4474263 263.93733424 -146.45470566 259.55345261 C-146.47168155 249.21152869 -146.46816049 238.86975242 -146.45141602 228.52783203 C-146.43447961 217.86784463 -146.45035549 207.20826628 -146.4826389 196.54832351 C-146.50934196 187.38286149 -146.51660935 178.21752674 -146.50812382 169.05202973 C-146.50319887 163.5834209 -146.50538767 158.11505839 -146.52591133 152.64648056 C-146.54428075 147.50641811 -146.53829408 142.36694437 -146.51371193 137.22691345 C-146.50870892 135.34357623 -146.51218052 133.46019403 -146.52486038 131.57689285 C-146.54083288 129.00028572 -146.52580233 126.42560767 -146.50318909 123.84909058 C-146.51502482 123.10880674 -146.52686054 122.36852291 -146.53905493 121.60580623 C-146.42441248 115.15039354 -143.75309383 110.45815253 -139.33303553 105.81915843 C-137.81576704 104.38820995 -136.24370916 103.064983 -134.625 101.75 C-134.02147705 101.24581543 -133.4179541 100.74163086 -132.79614258 100.22216797 C-127.45537406 95.80564553 -121.94249805 91.61370979 -116.41186523 87.43920898 C-110.48981883 82.95652572 -104.75423179 78.2757122 -99.04199219 73.5300293 C-94.68155937 69.91195865 -90.28143942 66.35807823 -85.8125 62.875 C-80.70157385 58.89147318 -75.6486659 54.84307454 -70.625 50.75 C-69.9431665 50.19449463 -69.26133301 49.63898926 -68.55883789 49.06665039 C-67.24982366 48.00001667 -65.94082243 46.93336698 -64.63183594 45.86669922 C-56.72673576 39.43584091 -48.70792734 33.14912457 -40.68945312 26.86083984 C-38.32995559 25.00994229 -35.97186681 23.15725739 -33.61425781 21.30395508 C-32.45794397 20.39549234 -31.30104569 19.48777297 -30.14355469 18.58081055 C-27.11372298 16.20539864 -24.09589071 13.81659295 -21.09375 11.40625 C-20.47113281 10.90931641 -19.84851563 10.41238281 -19.20703125 9.90039062 C-18.02381039 8.95557994 -16.84386952 8.00664015 -15.66796875 7.05273438 C-10.84318994 3.2124868 -6.32754978 0.01037303 0 0 Z M-7 27.125 C-7.61746094 27.61613281 -8.23492187 28.10726563 -8.87109375 28.61328125 C-14.24452202 32.89910179 -19.57164616 37.24265871 -24.89746094 41.58740234 C-30.98991109 46.55134781 -37.1666943 51.40277868 -43.35546875 56.24560547 C-48.46557829 60.25388869 -53.52012633 64.33102727 -58.5546875 68.43359375 C-65.51772094 74.10749067 -72.50224455 79.74375521 -79.58276367 85.27050781 C-84.08102385 88.79071934 -88.5145162 92.38584156 -92.9375 96 C-98.84116976 100.82144842 -104.82352903 105.51683263 -110.8828125 110.140625 C-118.12996267 115.49440762 -118.12996267 115.49440762 -124.875 121.4375 C-124.9771089 123.85692832 -125.01387597 126.24796236 -125.00871277 128.66804504 C-125.01097833 129.43378505 -125.01324388 130.19952505 -125.01557809 130.9884693 C-125.02194709 133.57411498 -125.02108688 136.15970864 -125.02026367 138.74536133 C-125.0232534 140.59121265 -125.0266555 142.43706335 -125.03044128 144.28291321 C-125.03930552 149.31189113 -125.04162044 154.34085206 -125.04225707 159.36983705 C-125.04320436 163.56226078 -125.04688066 167.75468052 -125.05042917 171.94710273 C-125.05858332 181.83656337 -125.06101257 191.7260149 -125.06030273 201.61547852 C-125.05970203 211.82818325 -125.07025016 222.04083515 -125.0860464 232.25352651 C-125.09910964 241.01022714 -125.10448713 249.76691048 -125.10384732 258.52362078 C-125.10359193 263.75853656 -125.10646567 268.99340544 -125.11702538 274.22831154 C-125.12668566 279.15220103 -125.12679979 284.0759986 -125.11950874 288.99989128 C-125.11846024 290.80911518 -125.12084145 292.61834474 -125.1268692 294.4275589 C-125.13455487 296.89381638 -125.12996713 299.35975374 -125.12223816 301.82600403 C-125.12738172 302.54516882 -125.13252529 303.26433362 -125.13782471 304.00529128 C-125.10801911 309.06140597 -125.10801911 309.06140597 -122.875 313.4375 C-118.41071145 317.25233348 -113.77024362 316.85918177 -108.19604492 316.81845093 C-107.21524806 316.8231309 -106.2344512 316.82781087 -105.22393322 316.83263266 C-101.93430791 316.84460778 -98.64509723 316.83511539 -95.35546875 316.82568359 C-92.9983394 316.82974816 -90.64121196 316.8350894 -88.28408813 316.84161377 C-81.87924669 316.85530669 -75.47454999 316.84998048 -69.06970596 316.84047651 C-65.07034284 316.83514615 -61.07098965 316.83614786 -57.07162476 316.8389473 C-56.40765912 316.839407 -55.74369349 316.83986669 -55.05960768 316.84034032 C-53.710764 316.8412995 -52.36192033 316.84227214 -51.01307666 316.8432581 C-38.36567529 316.85181224 -25.71833916 316.8419775 -13.07094848 316.825857 C-2.21946684 316.81245378 8.63191853 316.81478186 19.48339844 316.82861328 C32.08561507 316.84466869 44.68777453 316.85098826 57.28999996 316.84177649 C58.63387488 316.84082085 59.97774982 316.83987773 61.32162476 316.8389473 C61.98283272 316.83848447 62.64404069 316.83802164 63.32528526 316.83754479 C67.98426281 316.83495478 72.64318415 316.83947264 77.30215454 316.84638596 C83.57303099 316.85504086 89.84372532 316.84906053 96.11458206 316.83170319 C98.41843996 316.82773047 100.72231315 316.82888573 103.02616501 316.83549118 C106.16633314 316.84366556 109.30591437 316.83343438 112.44604492 316.81845093 C113.36189771 316.82514309 114.27775049 316.83183526 115.22135639 316.83873022 C121.15625224 316.78364556 124.52484695 315.93637211 128.91284943 311.71929073 C130.62218065 308.50159135 130.54614085 305.48436201 130.51940918 301.92884827 C130.52550028 301.16941766 130.53159139 300.40998705 130.53786707 299.62754339 C130.55452539 297.08105235 130.54971733 294.53505979 130.54492188 291.98852539 C130.55226055 290.16355366 130.56084619 288.33858658 130.57058716 286.5136261 C130.59283253 281.55496671 130.59573235 276.59647334 130.59383965 271.63777089 C130.59372009 267.49995488 130.60227808 263.36217423 130.61061716 259.22436804 C130.62986192 249.46376376 130.63273105 239.70324501 130.62597656 229.94262695 C130.61933379 219.86892397 130.64220723 209.79558696 130.67929029 199.72195822 C130.70996303 191.07641423 130.72134999 182.43098812 130.71745348 173.78539079 C130.71538356 168.62025875 130.72090268 163.45541148 130.74534607 158.29033089 C130.76757073 153.43353385 130.76577112 148.57733287 130.74541855 143.72053337 C130.74200096 141.93752456 130.74712975 140.15447596 130.76140213 138.371521 C130.7795387 135.93802695 130.7668896 133.50656714 130.74645996 131.07313538 C130.75897781 130.36671168 130.77149566 129.66028798 130.78439283 128.93245751 C130.71465084 125.06057342 130.22535044 123.55647686 127.69182587 120.55269527 C126.84477333 119.85468083 125.99772079 119.15666639 125.125 118.4375 C124.56707764 117.94950928 124.00915527 117.46151855 123.43432617 116.95874023 C122.93392822 116.55856689 122.43353027 116.15839355 121.91796875 115.74609375 C121.33974365 115.28259521 120.76151855 114.81909668 120.16577148 114.34155273 C119.55419189 113.85759033 118.9426123 113.37362793 118.3125 112.875 C117.661604 112.35687744 117.01070801 111.83875488 116.34008789 111.30493164 C110.97725389 107.05964843 105.519523 102.94852921 100.03344727 98.86450195 C94.55167903 94.77826206 89.16846042 90.57911232 83.8046875 86.33984375 C79.67870737 83.07935154 75.52762178 79.85145265 71.375 76.625 C70.61719238 76.03605957 69.85938477 75.44711914 69.07861328 74.84033203 C67.53230392 73.63873508 65.98591676 72.43723823 64.43945312 71.23583984 C60.66684366 68.30450637 56.89599645 65.37090802 53.125 62.4375 C51.62500877 61.27082206 50.12500876 60.1041554 48.625 58.9375 C39.625 51.9375 39.625 51.9375 37.37231445 50.18530273 C35.88140665 49.02577977 34.39035984 47.86643552 32.89916992 46.70727539 C29.0088646 43.68280671 25.12146089 40.65470739 21.23828125 37.62109375 C20.43455078 36.99396484 19.63082031 36.36683594 18.80273438 35.72070312 C17.27578697 34.52915457 15.74968316 33.3365238 14.22460938 32.14257812 C4.07389128 22.80206252 4.07389128 22.80206252 -7 27.125 Z " fill="#1B60BC" transform="translate(475.875,331.5625)"/>
<path d="M0 0 C8.38452246 6.72374205 14.52963084 16.94273231 16.78125 27.44140625 C18.26583877 42.44034431 14.6803034 54.26318848 5.78125 66.44140625 C2.18301567 70.52521303 -1.65993381 74.32898252 -5.55078125 78.12890625 C-6.63553245 79.20362677 -7.71931089 80.27932991 -8.8021698 81.35595703 C-11.62523988 84.15830722 -14.45970438 86.94882195 -17.29736328 89.73638916 C-21.85843446 94.22151741 -26.40036673 98.72605332 -30.94464684 103.22817993 C-32.526991 104.79288126 -34.11349271 106.35326075 -35.70088196 107.9128418 C-36.66888185 108.86762668 -37.63683583 109.82245811 -38.60473633 110.77734375 C-39.44966141 111.6079834 -40.29458649 112.43862305 -41.16511536 113.29443359 C-43.35945395 115.46365398 -43.35945395 115.46365398 -45.21875 118.44140625 C-45.87875 118.44140625 -46.53875 118.44140625 -47.21875 118.44140625 C-47.48140152 119.02806564 -47.74405304 119.61472504 -48.0146637 120.21916199 C-49.27912044 122.55282506 -50.62350453 124.11240563 -52.48413086 125.99731445 C-53.14920151 126.67514481 -53.81427216 127.35297516 -54.49949646 128.05134583 C-55.22024857 128.77432358 -55.94100067 129.49730133 -56.68359375 130.2421875 C-57.43153702 130.99678757 -58.17948029 131.75138763 -58.9500885 132.52885437 C-60.53707128 134.12596154 -62.12678051 135.72036346 -63.71899414 137.31225586 C-66.12651289 139.72411553 -68.51761389 142.15145286 -70.90820312 144.58007812 C-84.58399029 158.35845265 -96.94140789 168.6869727 -117.28125 168.94140625 C-130.67922711 168.77338898 -140.88595108 164.30565572 -150.6640625 155.15234375 C-156.10186328 149.49918452 -159.56296148 143.80619795 -162.21875 136.44140625 C-162.46367187 135.77625 -162.70859375 135.11109375 -162.9609375 134.42578125 C-165.88428081 124.89488116 -164.85039048 114.58366641 -161.21875 105.44140625 C-160.96351563 104.76722656 -160.70828125 104.09304688 -160.4453125 103.3984375 C-156.14659929 93.51928466 -146.78849432 85.85956849 -139.30932617 78.33911133 C-138.46897324 77.4905809 -137.6286203 76.64205048 -136.76280212 75.76780701 C-134.0154284 72.99587235 -131.26423092 70.22776705 -128.51171875 67.4609375 C-127.55451087 66.49835574 -126.59730479 65.53577218 -125.64010048 64.57318687 C-121.6555723 60.56710582 -117.66963533 56.56243526 -113.67998791 52.56145191 C-108.00723667 46.87245931 -102.34317069 41.17512283 -96.69080752 35.46587068 C-92.68828425 31.42446857 -88.6760535 27.39286467 -84.65667897 23.36822242 C-82.26805729 20.97597654 -79.88366136 18.57987253 -77.50966454 16.17310524 C-74.85695521 13.48858809 -72.18869793 10.8204744 -69.51635742 8.15551758 C-68.36798401 6.98253616 -68.36798401 6.98253616 -67.19641113 5.78585815 C-47.72387111 -13.46894518 -22.42213829 -15.75076264 0 0 Z " fill="#E97129" transform="translate(555.21875,452.55859375)"/>
<path d="M0 0 C1.96618027 0.93645398 3.66713751 1.96179195 5.43359375 3.23046875 C6.32046875 3.80796875 7.20734375 4.38546875 8.12109375 4.98046875 C13.59406298 10.30551989 16.5585143 16.21407427 16.74609375 23.85546875 C16.47756192 42.47367575 -3.1742535 56.0298844 -15.3203125 68.22265625 C-16.66650823 69.57496527 -16.66650823 69.57496527 -18.03989983 70.95459366 C-22.29404955 75.22736184 -26.55020052 79.49811206 -30.80946976 83.76577556 C-35.6993923 88.66550138 -40.58088406 93.57343379 -45.45554024 98.48834693 C-49.70396196 102.77063065 -53.96336734 107.04182188 -58.22672844 111.30923843 C-60.02936552 113.11673838 -61.82863023 114.92760833 -63.62439156 116.74193954 C-66.13421487 119.27612335 -68.65638711 121.79736762 -71.18188477 124.31591797 C-71.91509445 125.06193771 -72.64830414 125.80795746 -73.4037323 126.57658386 C-80.0235487 133.1303907 -86.7760869 137.25298716 -96.25390625 137.54296875 C-104.32909361 137.44782663 -110.95248227 133.97198191 -116.56640625 128.23046875 C-121.32141152 121.03997298 -123.40483955 114.84874129 -122.56640625 106.23046875 C-120.42757059 97.89387947 -115.83525037 92.64393675 -109.80981445 86.72924805 C-108.92635849 85.83849075 -108.04290253 84.94773346 -107.13267517 84.02998352 C-104.72586545 81.60981669 -102.3065305 79.20373954 -99.87973809 76.8037107 C-97.33052126 74.27729262 -94.79692044 71.73529402 -92.2610321 69.19551086 C-88.00183519 64.93455331 -83.73089545 60.68565843 -79.45239258 56.4440918 C-74.5216104 51.55563707 -69.60871374 46.64976487 -64.70529681 41.73387212 C-59.96803722 36.98518198 -55.21945127 32.24798128 -50.46529198 27.51621437 C-48.45127993 25.51143727 -46.44102085 23.50300788 -44.43374062 21.49149132 C-41.62414768 18.67739536 -38.79797179 15.88031835 -35.9699707 13.0847168 C-35.14834442 12.25813568 -34.32671814 11.43155457 -33.48019409 10.57992554 C-23.7674082 1.04342707 -13.92436774 -4.17519094 0 0 Z " fill="#FEFDFD" transform="translate(534.56640625,463.76953125)"/>
<path d="M0 0 C7.59 0 15.18 0 23 0 C23 14.85 23 29.7 23 45 C39.5 45 56 45 73 45 C73 30.15 73 15.3 73 0 C80.92 0 88.84 0 97 0 C97 36.96 97 73.92 97 112 C89.08 112 81.16 112 73 112 C73 96.16 73 80.32 73 64 C56.5 64 40 64 23 64 C23 79.84 23 95.68 23 112 C15.41 112 7.82 112 0 112 C0 75.04 0 38.08 0 0 Z " fill="#1B5FBC" transform="translate(703,378)"/>
<path d="M0 0 C10.74984461 5.90568654 17.15875851 14.70112197 21.0859375 26.171875 C24.31347868 39.68892782 22.53799158 53.87523668 15.3125 65.75 C8.31508862 75.38234684 -1.1674651 81.81284013 -13 84 C-26.83583423 84.95043456 -38.99212541 83.18007451 -50 74 C-57.62625329 67.05071485 -63.33198417 57.455461 -64.16113281 46.96044922 C-64.45548433 31.84926392 -63.49897221 19.6287959 -53.03125 7.76953125 C-39.14213201 -5.64151927 -17.2805318 -7.88438799 0 0 Z " fill="#EC7726" transform="translate(847,547)"/>
<path d="M0 0 C8.45030564 6.74399392 14.47401933 16.23541792 16.4375 26.9453125 C17.47501621 41.74844563 14.90244593 54.30169089 5.0625 65.6953125 C4.19625 66.4378125 3.33 67.1803125 2.4375 67.9453125 C1.89867187 68.43644531 1.35984375 68.92757812 0.8046875 69.43359375 C-8.94998987 77.65772551 -21.25841988 79.08251277 -33.5703125 78.17285156 C-45.54164298 76.80553784 -54.07581089 70.39924436 -61.734375 61.51953125 C-69.13675501 51.09609444 -70.63047198 39.34929986 -69.5625 26.9453125 C-67.53788487 16.4319496 -61.93991455 6.92774487 -53.5078125 0.25390625 C-37.10999844 -10.7767518 -16.51702016 -11.47548785 0 0 Z " fill="#1C61BD" transform="translate(881.5625,413.0546875)"/>
<path d="M0 0 C9.45294753 6.86202337 15.29800062 16.31027512 18.0078125 27.6875 C18.83192925 33.42197908 19.32175483 39.92145427 17.4765625 45.45703125 C-1.9934375 45.45703125 -21.4634375 45.45703125 -41.5234375 45.45703125 C-38.00055218 56.26342422 -38.00055218 56.26342422 -30.5234375 61.45703125 C-24.26171179 63.54427315 -18.40637029 62.80687254 -12.34765625 60.40625 C-10.4353641 59.50264774 -10.4353641 59.50264774 -8.76196289 57.91601562 C-5.9359564 56.07413376 -4.23421354 56.1105827 -0.8828125 56.1640625 C0.72207031 56.17856445 0.72207031 56.17856445 2.359375 56.19335938 C3.47054688 56.21849609 4.58171875 56.24363281 5.7265625 56.26953125 C7.41652344 56.28983398 7.41652344 56.28983398 9.140625 56.31054688 C11.91975514 56.3458748 14.69791613 56.39520605 17.4765625 56.45703125 C14.10550621 66.34966374 8.86234661 73.0534914 -0.5859375 77.95703125 C-12.09150206 83.08026377 -25.38543442 84.93118053 -37.5234375 80.45703125 C-50.78200985 74.55385466 -56.98743059 66.5339773 -62.5234375 53.45703125 C-66.803223 41.753901 -65.19570818 28.7459337 -60.5234375 17.45703125 C-55.09760471 5.99536081 -47.28277307 -0.12408799 -35.5234375 -4.54296875 C-24.38720481 -8.27884168 -9.78330973 -5.98205471 0 0 Z " fill="#EC7726" transform="translate(1037.5234375,548.54296875)"/>
<path d="M0 0 C7.59 0 15.18 0 23 0 C23.33 20.79 23.66 41.58 24 63 C33.07964414 53.1114655 33.07964414 53.1114655 41.63671875 42.86328125 C42.80654297 41.44595703 42.80654297 41.44595703 44 40 C44.51385254 39.2361499 45.02770508 38.4722998 45.55712891 37.68530273 C48.39300107 33.85427532 50.41132702 31.36127863 55.17456055 30.27807617 C58.82237408 30.11506664 62.35590333 30.21238949 66 30.4375 C67.25167969 30.47810547 68.50335937 30.51871094 69.79296875 30.56054688 C72.86603219 30.66611012 75.93095658 30.8136015 79 31 C75.73319159 35.44849305 72.45080353 39.76570844 68.6875 43.8125 C64.6526685 48.22771966 60.8490028 52.78978426 57.0859375 57.4375 C54.44858732 60.67739086 51.73591241 63.84317799 49 67 C50.50217098 70.18136547 52.28439057 73.048776 54.23828125 75.97265625 C55.2128125 77.43324463 55.2128125 77.43324463 56.20703125 78.92333984 C56.90183594 79.9592627 57.59664062 80.99518555 58.3125 82.0625 C59.02148438 83.1242041 59.73046875 84.1859082 60.4609375 85.27978516 C63.92433968 90.45552683 67.41044277 95.61374572 70.94921875 100.73828125 C71.55016357 101.6089624 72.1511084 102.47964355 72.77026367 103.37670898 C73.90528388 105.01604022 75.04463345 106.65238413 76.1887207 108.28540039 C76.94608521 109.37776001 76.94608521 109.37776001 77.71875 110.4921875 C78.38293945 111.44134033 78.38293945 111.44134033 79.06054688 112.40966797 C80 114 80 114 80 116 C57.04099029 118.35582345 57.04099029 118.35582345 50.91699219 114.78564453 C47.65185194 111.49272899 45.8893931 107.43187043 44.06738281 103.22119141 C42.15035722 99.23191902 39.46613207 95.76012149 36.875 92.1875 C32 85.31349206 32 85.31349206 32 83 C27.75186455 85.6230301 24.49464576 88.02173731 23.24609375 93.01513672 C22.98983241 96.5097482 22.94266203 99.93414985 23 103.4375 C22.98839844 104.64599609 22.97679687 105.85449219 22.96484375 107.09960938 C22.94139136 110.0663367 22.96592535 113.03337567 23 116 C15.41 116 7.82 116 0 116 C0 77.72 0 39.44 0 0 Z " fill="#EC7827" transform="translate(1070,513)"/>
<path d="M0 0 C7.59 0 15.18 0 23 0 C23.33 20.79 23.66 41.58 24 63 C33.07964414 53.1114655 33.07964414 53.1114655 41.63671875 42.86328125 C42.80654297 41.44595703 42.80654297 41.44595703 44 40 C44.51965332 39.2361499 45.03930664 38.4722998 45.57470703 37.68530273 C48.37988041 33.92373616 50.3973171 31.37555538 55.08081055 30.27807617 C58.59478547 30.11525381 61.98994827 30.21185382 65.5 30.4375 C66.70398438 30.47810547 67.90796875 30.51871094 69.1484375 30.56054688 C72.10318406 30.66607354 75.04944217 30.81351811 78 31 C76.71076019 33.78823237 75.31380469 35.98996602 73.27734375 38.28515625 C72.74302734 38.89302979 72.20871094 39.50090332 71.65820312 40.12719727 C71.09037109 40.76584717 70.52253906 41.40449707 69.9375 42.0625 C68.75792074 43.40520214 67.57954207 44.74895991 66.40234375 46.09375 C65.82339355 46.75503906 65.24444336 47.41632812 64.64794922 48.09765625 C60.99571195 52.31369073 57.50993962 56.66547997 54 61 C52.34091055 63.00652229 50.67208532 65.00428526 49 67 C50.46389769 71.25789598 52.71274607 74.60878344 55.375 78.1875 C60.00547407 84.53305979 64.39094375 91.01777137 68.72119141 97.57104492 C72.01086789 102.54212356 75.37815798 107.43290237 78.890625 112.25 C80 114 80 114 80 116 C71.06499684 118.0489395 61.69427522 119.51535372 53 116 C44.93361656 109.41642271 39.64170892 98.79541249 34.85209656 89.72596741 C33.97990146 88.10586096 32.99899134 86.54514902 32 85 C28.90255081 84.73269739 28.90255081 84.73269739 26.36328125 86.66796875 C22.23797475 91.05313707 23.21475328 97.68318302 23.1875 103.3125 C23.16236328 104.53001953 23.13722656 105.74753906 23.11132812 107.00195312 C23.05252416 110.00095519 23.02338367 113.00051263 23 116 C15.41 116 7.82 116 0 116 C0 77.72 0 39.44 0 0 Z " fill="#EC7928" transform="translate(703,513)"/>
<path d="M0 0 C11.08971015 6.81729251 16.52105233 16.25217806 19.64453125 28.74609375 C19.64453125 34.02609375 19.64453125 39.30609375 19.64453125 44.74609375 C0.83453125 44.74609375 -17.97546875 44.74609375 -37.35546875 44.74609375 C-34.04860411 55.45853706 -34.04860411 55.45853706 -26.35546875 60.74609375 C-18.61202838 61.40672293 -12.68330026 61.49196738 -6.35546875 56.74609375 C-6.02546875 56.41609375 -5.69546875 56.08609375 -5.35546875 55.74609375 C-3.57475629 55.65883152 -1.79063735 55.63910334 -0.0078125 55.6484375 C1.07177734 55.65166016 2.15136719 55.65488281 3.26367188 55.65820312 C4.96813477 55.67077148 4.96813477 55.67077148 6.70703125 55.68359375 C8.41729492 55.69036133 8.41729492 55.69036133 10.16210938 55.69726562 C12.98963476 55.70909628 15.81705765 55.72557965 18.64453125 55.74609375 C17.36015865 62.8866115 13.70841124 68.19918422 8.12109375 72.84375 C-3.1215902 80.43014561 -15.06641862 82.14078614 -28.35546875 80.74609375 C-38.68698802 78.63966749 -47.06299546 72.50847228 -53.07421875 63.92578125 C-60.21323665 51.7807447 -61.5108286 36.44995054 -58.29296875 22.80859375 C-55.23584319 13.52293199 -49.92627756 5.59303391 -41.35546875 0.74609375 C-40.5046875 0.26140625 -39.65390625 -0.22328125 -38.77734375 -0.72265625 C-26.80869217 -6.60887834 -11.77587768 -6.2687508 0 0 Z " fill="#1B60BD" transform="translate(1131.35546875,410.25390625)"/>
<path d="M0 0 C5.88955654 3.93008215 10.2084515 9.79924954 12.37986755 16.57452393 C12.93718543 19.43667821 12.93576534 22.13686128 12.92993164 25.05371094 C12.92981834 26.94521881 12.92981834 26.94521881 12.92970276 28.87493896 C12.92459653 30.24605346 12.91938055 31.61716756 12.9140625 32.98828125 C12.91219653 34.39503936 12.91077347 35.80179813 12.90977478 37.20855713 C12.90596369 40.90421352 12.89614545 44.59983038 12.8850708 48.29547119 C12.87482639 52.06937119 12.87027067 55.8432776 12.86523438 59.6171875 C12.85452188 67.01694716 12.83693652 74.41666612 12.81640625 81.81640625 C5.55640625 81.81640625 -1.70359375 81.81640625 -9.18359375 81.81640625 C-9.19817627 80.17647705 -9.21275879 78.53654785 -9.2277832 76.84692383 C-9.28575998 70.76190396 -9.36299383 64.67725436 -9.44604492 58.5925293 C-9.479297 55.95912689 -9.50732799 53.32565316 -9.5300293 50.69213867 C-9.56356904 46.90642914 -9.61588695 43.12137336 -9.671875 39.3359375 C-9.67826492 38.15868607 -9.68465485 36.98143463 -9.6912384 35.76850891 C-9.72092964 34.11736336 -9.72092964 34.11736336 -9.7512207 32.43286133 C-9.76787529 30.98391228 -9.76787529 30.98391228 -9.78486633 29.50569153 C-10.25183109 26.35616782 -11.46763154 24.46549723 -13.18359375 21.81640625 C-13.18359375 21.15640625 -13.18359375 20.49640625 -13.18359375 19.81640625 C-20.23019519 17.31094796 -27.42977204 16.58788278 -34.62109375 18.94140625 C-37.72088077 21.20954309 -39.73089333 23.27601604 -41.18359375 26.81640625 C-41.79309332 31.01906468 -41.78852284 35.19230749 -41.79296875 39.43359375 C-41.809505 40.64588654 -41.82604126 41.85817932 -41.84307861 43.10720825 C-41.89155561 46.96865915 -41.91293015 50.82971618 -41.93359375 54.69140625 C-41.96175348 57.31382189 -41.9916809 59.9362192 -42.0234375 62.55859375 C-42.09731534 68.97783217 -42.1468925 75.39685197 -42.18359375 81.81640625 C-49.44359375 81.81640625 -56.70359375 81.81640625 -64.18359375 81.81640625 C-64.18359375 54.09640625 -64.18359375 26.37640625 -64.18359375 -2.18359375 C-57.58359375 -2.18359375 -50.98359375 -2.18359375 -44.18359375 -2.18359375 C-43.85359375 1.11640625 -43.52359375 4.41640625 -43.18359375 7.81640625 C-42.50296875 7.09453125 -41.82234375 6.37265625 -41.12109375 5.62890625 C-29.78919828 -5.63896721 -14.22591624 -7.71100647 0 0 Z " fill="#EC7625" transform="translate(947.18359375,547.18359375)"/>
<path d="M0 0 C7.59 0 15.18 0 23 0 C23.03738281 3.68414062 23.07476563 7.36828125 23.11328125 11.1640625 C23.15951352 14.73850386 23.21074116 18.31284121 23.26245117 21.88720703 C23.29567236 24.36826235 23.32371298 26.84939273 23.34643555 29.33056641 C23.3800322 32.90039001 23.43235283 36.46952745 23.48828125 40.0390625 C23.49467117 41.14553131 23.5010611 42.25200012 23.50764465 43.39199829 C23.61552921 49.06374553 23.94115486 53.04622751 27 58 C27 58.66 27 59.32 27 60 C32.97826842 62.51716565 39.03607505 63.05615538 45.31640625 61.3828125 C49.3866764 59.68874058 50.62659944 58.7998627 52.57373047 54.62890625 C54.51065127 49.24255521 54.47728454 43.95244844 54.51171875 38.28125 C54.52966995 37.18276733 54.54762115 36.08428467 54.56611633 34.95251465 C54.61999197 31.46838132 54.6540426 27.98438321 54.6875 24.5 C54.72069308 22.12758545 54.75518456 19.75518868 54.79101562 17.3828125 C54.87813254 11.58852463 54.93839797 5.79483918 55 0 C62.26 0 69.52 0 77 0 C77 27.06 77 54.12 77 82 C70.07 82 63.14 82 56 82 C56 78.7 56 75.4 56 72 C55.21496094 72.62648438 54.42992187 73.25296875 53.62109375 73.8984375 C52.56033139 74.72451793 51.49910861 75.55000738 50.4375 76.375 C49.40496094 77.18710937 48.37242187 77.99921875 47.30859375 78.8359375 C39.54285367 83.91529996 30.9908755 83.75803539 22 83 C15.25069758 81.36410231 9.51337405 77.21795054 5 72 C1.23819027 65.66145933 -0.12949886 59.4399768 -0.11352539 52.1081543 C-0.11344986 50.94732834 -0.11337433 49.78650238 -0.11329651 48.59049988 C-0.10813522 47.34762711 -0.10297394 46.10475433 -0.09765625 44.82421875 C-0.0962413 43.54392288 -0.09482635 42.26362701 -0.09336853 40.9445343 C-0.08956397 37.5530296 -0.07975143 34.16156823 -0.06866455 30.77008057 C-0.05840597 27.30440863 -0.05386141 23.83872964 -0.04882812 20.37304688 C-0.03780755 13.5820101 -0.02054722 6.79101437 0 0 Z " fill="#1C61BD" transform="translate(908,408)"/>
<path d="M0 0 C0.79019531 -0.01160156 1.58039063 -0.02320313 2.39453125 -0.03515625 C11.52779651 0.00968793 19.79903882 2.65420354 26.3515625 9.234375 C30.35542764 13.6172068 33.5 17.20663951 33.5 23.375 C29.9377769 23.49154436 26.37604658 23.5623639 22.8125 23.625 C21.80509766 23.65851563 20.79769531 23.69203125 19.75976562 23.7265625 C12.21199832 23.82620299 12.21199832 23.82620299 8.41796875 21.421875 C7.78503906 20.74640625 7.15210938 20.0709375 6.5 19.375 C4.06045342 18.15522671 2.34694151 18.17346187 -0.375 18.125 C-1.67050781 18.08632813 -1.67050781 18.08632813 -2.9921875 18.046875 C-6.01031178 18.44176977 -7.35125254 19.24110563 -9.5 21.375 C-9.83397787 24.50086875 -9.83397787 24.50086875 -9.5 27.375 C-2.65022128 31.09162439 4.11069502 33.08570163 11.63476562 34.99804688 C20.46356422 37.3648614 28.33384479 40.5474921 33.5 48.375 C36.26937047 55.36436357 36.67500569 62.14836669 33.8125 69.125 C30.10931243 76.59634333 23.85609766 81.36369222 16.0625 84.125 C4.9501654 87.19683872 -7.70136565 86.41390741 -18.0625 81.3125 C-25.37800438 76.96931964 -30.90628836 70.48034887 -33.5 62.375 C-33.5 61.385 -33.5 60.395 -33.5 59.375 C-29.75040783 59.22971895 -26.00153895 59.14093719 -22.25 59.0625 C-21.18652344 59.02060547 -20.12304688 58.97871094 -19.02734375 58.93554688 C-11.0854986 58.8106751 -11.0854986 58.8106751 -8.015625 61.76953125 C-7.51546875 62.62933594 -7.0153125 63.48914063 -6.5 64.375 C-3.3804507 66.49092381 -0.72862075 66.6721348 3 66.6875 C3.9384375 66.70425781 4.876875 66.72101563 5.84375 66.73828125 C8.96188316 66.31183069 10.32606691 65.64036018 12.5 63.375 C12.98057715 61.3261352 12.98057715 61.3261352 12.75 59.1875 C12.6675 57.929375 12.585 56.67125 12.5 55.375 C7.2027303 53.52154814 1.91121837 51.92005204 -3.5402832 50.58837891 C-14.70369566 47.84840294 -24.70172176 45.33410134 -31.5 35.375 C-33.8650014 30.6449972 -33.05807347 24.48977045 -32.5 19.375 C-29.96686272 12.34577773 -25.13543907 6.81599506 -18.5 3.375 C-12.28461603 0.76576328 -6.70838424 -0.09849178 0 0 Z " fill="#1B5FBC" transform="translate(1029.5,405.625)"/>
<path d="M0 0 C7.59 0 15.18 0 23 0 C23 7.92 23 15.84 23 24 C28.94 24 34.88 24 41 24 C41 29.94 41 35.88 41 42 C35.06 42 29.12 42 23 42 C23.06892137 48.03271442 23.15691082 54.0647387 23.26245117 60.09692383 C23.29567083 62.14827816 23.32371197 64.19972325 23.34643555 66.2512207 C23.3800357 69.20302949 23.43235476 72.15400886 23.48828125 75.10546875 C23.49467117 76.02023483 23.5010611 76.93500092 23.50764465 77.87748718 C23.62985948 83.19055208 24.05065875 87.05065875 28 91 C30.01594582 91.23427778 32.038474 91.41336124 34.0625 91.5625 C36.021875 91.706875 37.98125 91.85125 40 92 C40 97.94 40 103.88 40 110 C36.10429113 111.29856962 32.37469608 111.26324136 28.3125 111.3125 C27.53455078 111.34150391 26.75660156 111.37050781 25.95507812 111.40039062 C18.07366792 111.48584378 11.66422868 108.50688899 6 103 C0.30656358 94.70384978 -0.30372169 86.12697928 -0.1953125 76.27734375 C-0.1924826 75.29125626 -0.18965271 74.30516876 -0.18673706 73.28919983 C-0.17563505 70.17183763 -0.15054945 67.05477383 -0.125 63.9375 C-0.11495729 61.81055105 -0.10583371 59.68359756 -0.09765625 57.55664062 C-0.07572848 52.3709806 -0.04126846 47.18554071 0 42 C-4.62 42 -9.24 42 -14 42 C-14 36.06 -14 30.12 -14 24 C-9.38 24 -4.76 24 0 24 C0 16.08 0 8.16 0 0 Z " fill="#EB7528" transform="translate(1172,520)"/>
<path d="M0 0 C5.3851708 3.27333911 9.45006435 7.77750088 11.1875 13.9375 C13.0485729 22.31232806 12.71747239 30.08206848 9.1875 37.9375 C6.51096931 41.99284953 3.72066877 45.10122613 -0.5625 47.4375 C-7.63675633 48.52584713 -14.75228744 49.30649045 -20.8125 44.9375 C-26.3328552 39.7896025 -28.43985321 34.94561958 -29.1484375 27.32421875 C-29.23685749 18.95084597 -29.1791284 10.86455129 -23.3515625 4.2890625 C-16.28643882 -1.91533546 -8.88720931 -2.47676325 0 0 Z " fill="#FEFDFC" transform="translate(834.8125,563.0625)"/>
<path d="M0 0 C4.7933404 1.62944346 7.81781795 4.26733226 10.4375 8.5625 C13.95498109 16.3009584 14.28535545 25.50239538 12.3515625 33.7734375 C10.23338118 39.07794287 6.88064648 43.00311181 2 46 C-3.42891943 47.81711766 -9.97168902 48.11992263 -15.35546875 46.12890625 C-21.55693812 42.58022302 -24.29961359 37.84448194 -26.25 31.125 C-28.07343689 22.48853982 -27.19881288 14.87429546 -23 7 C-16.37927503 -0.53494534 -9.75052843 -0.93014909 0 0 Z " fill="#FCFDFE" transform="translate(862,425)"/>
<path d="M0 0 C4.47785384 3.75327668 8.74892056 7.61249097 12.875 11.75 C13.3596875 12.23082031 13.844375 12.71164062 14.34375 13.20703125 C17.44697959 16.31892908 18.8854377 17.80855208 19.3125 22.25 C18.84192898 27.89685227 16.15583832 31.12109154 12.0625 34.8125 C7.63722304 37.97341211 7.63722304 37.97341211 4 38 C1.79244202 36.22177399 0.06429297 34.58151748 -1.8125 32.5 C-2.86363455 31.38459329 -3.917023 30.2713063 -4.97265625 29.16015625 C-5.4845752 28.61633301 -5.99649414 28.07250977 -6.52392578 27.51220703 C-9.05376836 24.92043646 -11.84565073 22.65987655 -14.671875 20.40234375 C-16 19 -16 19 -16 16 C-14.53125 14.19067383 -14.53125 14.19067383 -12.5 12.20703125 C-11.778125 11.49482422 -11.05625 10.78261719 -10.3125 10.04882812 C-9.549375 9.31083984 -8.78625 8.57285156 -8 7.8125 C-6.8553125 6.68811523 -6.8553125 6.68811523 -5.6875 5.54101562 C-3.79819161 3.68713177 -1.90224794 1.84058931 0 0 Z " fill="#1B5DBC" transform="translate(478,513)"/>
<path d="M0 0 C3.28674777 2.34767698 5.39139855 4.49268923 7.625 7.875 C8.12 11.835 8.12 11.835 8.625 15.875 C-3.255 15.875 -15.135 15.875 -27.375 15.875 C-23.42819149 4.03457447 -23.42819149 4.03457447 -17.8125 0.0625 C-11.8533926 -1.99610074 -5.98024256 -1.99341419 0 0 Z " fill="#FEFCFB" transform="translate(1023.375,562.125)"/>
<path d="M0 0 C3.89798634 2.20640736 5.89206471 4.10196852 8.3125 7.875 C8.8075 11.835 8.8075 11.835 9.3125 15.875 C-1.9075 15.875 -13.1275 15.875 -24.6875 15.875 C-23.66699482 9.7519689 -22.69467556 6.41542991 -17.92578125 2.38671875 C-11.76362747 -1.91105059 -7.25251218 -2.21263083 0 0 Z " fill="#FAFCFD" transform="translate(1118.6875,424.125)"/>
<path d="M0 0 C7.59 0 15.18 0 23 0 C23 20.79 23 41.58 23 63 C22.67 63 22.34 63 22 63 C22 42.54 22 22.08 22 1 C15.4 1 8.8 1 2 1 C2 38.29 2 75.58 2 114 C8.6 114 15.2 114 22 114 C22 105.75 22 97.5 22 89 C22.33 89 22.66 89 23 89 C23 97.91 23 106.82 23 116 C15.41 116 7.82 116 0 116 C0 77.72 0 39.44 0 0 Z " fill="#E96008" transform="translate(703,513)"/>
<path d="M0 0 C0.33 0 0.66 0 1 0 C1.33 34.98 1.66 69.96 2 106 C8.6 106.33 15.2 106.66 22 107 C22 98.75 22 90.5 22 82 C22.33 82 22.66 82 23 82 C23 90.91 23 99.82 23 109 C15.41 109 7.82 109 0 109 C0 73.03 0 37.06 0 0 Z " fill="#EB6D0E" transform="translate(703,520)"/>
<path d="M0 0 C0.495 0.99 0.495 0.99 1 2 C-24.33333333 27.33333333 -49.66666667 52.66666667 -75 78 C-75.66 77.67 -76.32 77.34 -77 77 C-51.59 51.59 -26.18 26.18 0 0 Z " fill="#E5530E" transform="translate(531,519)"/>
<path d="M0 0 C0.99 0.33 1.98 0.66 3 1 C3.8320582 6.72040011 4.12036664 12.22240116 4 18 C1.38478215 19.30760893 -0.53113401 19.11997548 -3.45947266 19.11352539 C-4.60050446 19.11344986 -5.74153625 19.11337433 -6.91714478 19.11329651 C-8.15362762 19.10813522 -9.39011047 19.10297394 -10.6640625 19.09765625 C-11.92640717 19.0962413 -13.18875183 19.09482635 -14.48934937 19.09336853 C-17.84638299 19.08871078 -21.203349 19.07972408 -24.56036377 19.06866455 C-27.98554906 19.0584377 -31.41074134 19.05386818 -34.8359375 19.04882812 C-41.55731043 19.03778238 -48.27865131 19.02103194 -55 19 C-55 18.67 -55 18.34 -55 18 C-36.52 18 -18.04 18 1 18 C0.505 9.09 0.505 9.09 0 0 Z " fill="#ED7E32" transform="translate(1052,573)"/>
<path d="M0 0 C0.33 0 0.66 0 1 0 C1.33 20.46 1.66 40.92 2 62 C4.64 60.02 7.28 58.04 10 56 C10.33 56.99 10.66 57.98 11 59 C10.236875 59.433125 9.47375 59.86625 8.6875 60.3125 C6.41906232 61.73686785 4.7800277 63.03260097 3 65 C2.01 64.67 1.02 64.34 0 64 C0 42.88 0 21.76 0 0 Z " fill="#EB701C" transform="translate(724,514)"/>
<path d="M0 0 C3.58806317 3.38872633 6.45684799 6.76141332 9 11 C9 11.66 9 12.32 9 13 C0.09 13 -8.82 13 -18 13 C-17.67 12.34 -17.34 11.68 -17 11 C-9.41 11 -1.82 11 6 11 C4.02 8.03 2.04 5.06 0 2 C0 1.34 0 0.68 0 0 Z " fill="#E96311" transform="translate(774,616)"/>
<path d="M0 0 C3.35585467 3.0202692 4.22157001 4.55392503 6 9 C-2.91 9 -11.82 9 -21 9 C-21 8.34 -21 7.68 -21 7 C-13.08 7 -5.16 7 3 7 C2.01 5.35 1.02 3.7 0 2 C0 1.34 0 0.68 0 0 Z " fill="#E96311" transform="translate(1144,620)"/>
<path d="M0 0 C1.12067871 0.01047363 2.24135742 0.02094727 3.39599609 0.03173828 C5.21357422 0.04140625 5.21357422 0.04140625 7.06787109 0.05126953 C8.33888672 0.06802734 9.60990234 0.08478516 10.91943359 0.10205078 C12.19818359 0.11107422 13.47693359 0.12009766 14.79443359 0.12939453 C17.96128526 0.15302775 21.12776783 0.18597449 24.29443359 0.22705078 C23.13208008 1.71533203 23.13208008 1.71533203 21.29443359 3.22705078 C18.81420898 3.52001953 18.81420898 3.52001953 15.89208984 3.41455078 C14.83699219 3.39134766 13.78189453 3.36814453 12.69482422 3.34423828 C10.47346524 3.26625025 8.25211105 3.18812574 6.03076172 3.10986328 C4.974375 3.08666016 3.91798828 3.06345703 2.82958984 3.03955078 C1.8641626 3.00474609 0.89873535 2.96994141 -0.09594727 2.93408203 C-3.13974471 3.27579379 -4.45742305 4.20421951 -6.70556641 6.22705078 C-3.954477 0.3318592 -3.954477 0.3318592 0 0 Z " fill="#EB7437" transform="translate(1124.70556640625,543.77294921875)"/>
<path d="M0 0 C0.66 0.33 1.32 0.66 2 1 C-0.56428003 5.17882671 -3.01930733 8.12505529 -7 11 C-5.5140084 6.40693504 -3.14985318 3.56430755 0 0 Z " fill="#E96419" transform="translate(986,553)"/>
<path d="M0 0 C0.33 0.66 0.66 1.32 1 2 C-0.43640171 2.19573608 -1.87419504 2.38127816 -3.3125 2.5625 C-4.11300781 2.66691406 -4.91351562 2.77132813 -5.73828125 2.87890625 C-8 3 -8 3 -11 2 C-7.17010894 0.19769832 -4.21878192 -0.19622241 0 0 Z " fill="#114EB6" transform="translate(1105,407)"/>
<path d="M0 0 C0.66 0.99 1.32 1.98 2 3 C-0.33333333 5.33333333 -2.66666667 7.66666667 -5 10 C-4.49701212 5.59885603 -2.91227269 3.28804981 0 0 Z " fill="#134CB5" transform="translate(821,421)"/>
</svg>
